M48
; DRILL file KiCad 10.0.0 date 2026-07-06T21:26:07
; FORMAT={-:-/ absolute / metric / decimal}
; #@! TF.CreationDate,2026-07-06T21:26:07+09:00
; #@! TF.GenerationSoftware,Kicad,Pcbnew,10.0.0
; #@! TF.FileFunction,Plated,1,2,PTH
FMAT,2
METRIC
; #@! TA.AperFunction,Plated,PTH,ViaDrill
T1C0.300
; #@! TA.AperFunction,Plated,PTH,ComponentDrill
T2C0.700
; #@! TA.AperFunction,Plated,PTH,ComponentDrill
T3C1.000
; #@! TA.AperFunction,Plated,PTH,ComponentDrill
T4C2.600
%
G90
G05
T1
X131.8Y-85.4
X135.6Y-81.7
X171.6Y-78.4
X179.4Y-87.0
X179.4Y-111.1
X183.5Y-75.2
X195.0Y-74.2
X197.7Y-89.5
X200.7Y-79.0
T2
X125.4Y-110.4
X125.6Y-99.6
X126.65Y-110.4
X126.85Y-99.6
T3
X124.064Y-71.2
X126.06Y-89.0
X127.564Y-71.2
X128.6Y-89.0
X131.14Y-89.0
X133.68Y-89.0
X145.3Y-62.1
X145.3Y-113.1
X166.3Y-113.1
X166.8Y-62.1
X176.44Y-77.26
X176.44Y-79.8
X176.44Y-82.34
X176.44Y-84.88
X176.44Y-87.42
X176.44Y-89.96
X176.44Y-92.5
X176.44Y-95.04
X176.44Y-97.58
X176.44Y-100.12
X176.44Y-102.66
X176.44Y-105.2
X176.44Y-107.74
X176.44Y-110.28
X176.44Y-112.82
X176.8Y-60.7
X176.8Y-63.2
X176.8Y-65.7
X191.3Y-60.7
X191.3Y-65.7
X191.68Y-77.26
X191.68Y-79.8
X191.68Y-82.34
X191.68Y-84.88
X191.68Y-87.42
X191.68Y-89.96
X191.68Y-92.5
X191.68Y-95.04
X191.68Y-97.58
X191.68Y-100.12
X191.68Y-102.66
X191.68Y-105.2
X191.68Y-107.74
X191.68Y-110.28
X191.68Y-112.82
X197.6Y-59.86
X197.6Y-62.4
X197.6Y-64.94
X197.6Y-67.48
T4
X184.3Y-57.6
X184.3Y-68.8
M30
