%TF.GenerationSoftware,KiCad,Pcbnew,10.0.0*%
%TF.CreationDate,2026-07-06T21:21:34+09:00*%
%TF.ProjectId,screw_sorter,73637265-775f-4736-9f72-7465722e6b69,rev?*%
%TF.SameCoordinates,Original*%
%TF.FileFunction,Soldermask,Bot*%
%TF.FilePolarity,Negative*%
%FSLAX46Y46*%
G04 Gerber Fmt 4.6, Leading zero omitted, Abs format (unit mm)*
G04 Created by KiCad (PCBNEW 10.0.0) date 2026-07-06 21:21:34*
%MOMM*%
%LPD*%
G01*
G04 APERTURE LIST*
%ADD10R,1.700000X1.700000*%
%ADD11C,1.700000*%
%ADD12C,3.200000*%
%ADD13O,1.000000X1.000000*%
%ADD14R,2.000000X2.000000*%
%ADD15C,2.000000*%
%ADD16R,1.600000X1.600000*%
%ADD17O,1.600000X1.600000*%
G04 APERTURE END LIST*
D10*
%TO.C,J2*%
X197600000Y-67480000D03*
D11*
X197600000Y-64940000D03*
X197600000Y-62400000D03*
X197600000Y-59860000D03*
%TD*%
D12*
%TO.C,H3*%
X115000000Y-59600000D03*
%TD*%
D13*
%TO.C,J5*%
X125400000Y-110400000D03*
X126649680Y-110400000D03*
%TD*%
D12*
%TO.C,H1*%
X206000000Y-58900000D03*
%TD*%
D13*
%TO.C,J6*%
X126849680Y-99600000D03*
X125600000Y-99600000D03*
%TD*%
D10*
%TO.C,J9*%
X166800000Y-62100000D03*
%TD*%
D12*
%TO.C,H4*%
X115000000Y-112200000D03*
%TD*%
D14*
%TO.C,SW2*%
X176800000Y-60700000D03*
D15*
X176800000Y-65700000D03*
X176800000Y-63200000D03*
D12*
X184300000Y-57600000D03*
X184300000Y-68800000D03*
D15*
X191300000Y-65700000D03*
X191300000Y-60700000D03*
%TD*%
D10*
%TO.C,J12*%
X145300000Y-113100000D03*
%TD*%
%TO.C,J3*%
X126060000Y-89000000D03*
D11*
X128600000Y-89000000D03*
X131140000Y-89000000D03*
X133680000Y-89000000D03*
%TD*%
D10*
%TO.C,J8*%
X124064000Y-71200000D03*
%TD*%
%TO.C,J7*%
X127564000Y-71200000D03*
%TD*%
%TO.C,J11*%
X166300000Y-113100000D03*
%TD*%
D12*
%TO.C,H2*%
X206200000Y-112200000D03*
%TD*%
D16*
%TO.C,A1*%
X176440000Y-77260000D03*
D17*
X176440000Y-79800000D03*
X176440000Y-82340000D03*
X176440000Y-84880000D03*
X176440000Y-87420000D03*
X176440000Y-89960000D03*
X176440000Y-92500000D03*
X176440000Y-95040000D03*
X176440000Y-97580000D03*
X176440000Y-100120000D03*
X176440000Y-102660000D03*
X176440000Y-105200000D03*
X176440000Y-107740000D03*
X176440000Y-110280000D03*
X176440000Y-112820000D03*
X191680000Y-112820000D03*
X191680000Y-110280000D03*
X191680000Y-107740000D03*
X191680000Y-105200000D03*
X191680000Y-102660000D03*
X191680000Y-100120000D03*
X191680000Y-97580000D03*
X191680000Y-95040000D03*
X191680000Y-92500000D03*
X191680000Y-89960000D03*
X191680000Y-87420000D03*
X191680000Y-84880000D03*
X191680000Y-82340000D03*
X191680000Y-79800000D03*
X191680000Y-77260000D03*
%TD*%
D10*
%TO.C,J10*%
X145300000Y-62100000D03*
%TD*%
M02*
