%TF.GenerationSoftware,KiCad,Pcbnew,10.0.0*%
%TF.CreationDate,2026-07-06T21:21:33+09:00*%
%TF.ProjectId,screw_sorter,73637265-775f-4736-9f72-7465722e6b69,rev?*%
%TF.SameCoordinates,Original*%
%TF.FileFunction,Copper,L1,Top*%
%TF.FilePolarity,Positive*%
%FSLAX46Y46*%
G04 Gerber Fmt 4.6, Leading zero omitted, Abs format (unit mm)*
G04 Created by KiCad (PCBNEW 10.0.0) date 2026-07-06 21:21:33*
%MOMM*%
%LPD*%
G01*
G04 APERTURE LIST*
%TA.AperFunction,ComponentPad*%
%ADD10R,1.700000X1.700000*%
%TD*%
%TA.AperFunction,ComponentPad*%
%ADD11C,1.700000*%
%TD*%
%TA.AperFunction,ComponentPad*%
%ADD12O,1.000000X1.000000*%
%TD*%
%TA.AperFunction,ComponentPad*%
%ADD13R,2.000000X2.000000*%
%TD*%
%TA.AperFunction,ComponentPad*%
%ADD14C,2.000000*%
%TD*%
%TA.AperFunction,ComponentPad*%
%ADD15C,3.200000*%
%TD*%
%TA.AperFunction,SMDPad,CuDef*%
%ADD16R,3.500000X1.000000*%
%TD*%
%TA.AperFunction,SMDPad,CuDef*%
%ADD17R,3.500000X1.500000*%
%TD*%
%TA.AperFunction,ComponentPad*%
%ADD18R,1.600000X1.600000*%
%TD*%
%TA.AperFunction,ComponentPad*%
%ADD19O,1.600000X1.600000*%
%TD*%
%TA.AperFunction,ViaPad*%
%ADD20C,0.600000*%
%TD*%
%TA.AperFunction,Conductor*%
%ADD21C,0.800000*%
%TD*%
%TA.AperFunction,Conductor*%
%ADD22C,0.200000*%
%TD*%
G04 APERTURE END LIST*
D10*
%TO.P,J2,1,Pin_1_1*%
%TO.N,GND*%
X197600000Y-67480000D03*
D11*
%TO.P,J2,2,Pin_2_2*%
%TO.N,/Converted_5V*%
X197600000Y-64940000D03*
%TO.P,J2,3,Pin_3_3*%
%TO.N,/SDA*%
X197600000Y-62400000D03*
%TO.P,J2,4,Pin_4_4*%
%TO.N,/SCL*%
X197600000Y-59860000D03*
%TD*%
D12*
%TO.P,J5,1,Pin_1_1*%
%TO.N,Net-(J5-Pin_1)*%
X125400000Y-110400000D03*
%TO.P,J5,2,Pin_2_2*%
%TO.N,GND*%
X126649680Y-110400000D03*
%TD*%
%TO.P,J6,1,Pin_1_1*%
%TO.N,/VCC*%
X126849680Y-99600000D03*
%TO.P,J6,2,Pin_2_2*%
%TO.N,Net-(J5-Pin_1)*%
X125600000Y-99600000D03*
%TD*%
D10*
%TO.P,J9,1,Pin_1_1*%
%TO.N,/VCC*%
X166800000Y-62100000D03*
%TD*%
D13*
%TO.P,SW2,A,A_A*%
%TO.N,/Encoder_A*%
X176800000Y-60700000D03*
D14*
%TO.P,SW2,B,B_B*%
%TO.N,/Encoder_B*%
X176800000Y-65700000D03*
%TO.P,SW2,C,C_C*%
%TO.N,GND*%
X176800000Y-63200000D03*
D15*
%TO.P,SW2,MP,MP_MP*%
%TO.N,unconnected-(SW2-PadMP)*%
X184300000Y-57600000D03*
X184300000Y-68800000D03*
D14*
%TO.P,SW2,S1,S1_S1*%
%TO.N,GND*%
X191300000Y-65700000D03*
%TO.P,SW2,S2,S2_S2*%
%TO.N,/Encoder_Switch*%
X191300000Y-60700000D03*
%TD*%
D10*
%TO.P,J12,1,Pin_1_1*%
%TO.N,GND*%
X145300000Y-113100000D03*
%TD*%
%TO.P,J3,1,Pin_1_1*%
%TO.N,/IN2*%
X126060000Y-89000000D03*
D11*
%TO.P,J3,2,Pin_2_2*%
%TO.N,/IN1*%
X128600000Y-89000000D03*
%TO.P,J3,3,Pin_3_3*%
%TO.N,/VCC*%
X131140000Y-89000000D03*
%TO.P,J3,4,Pin_4_4*%
%TO.N,GND*%
X133680000Y-89000000D03*
%TD*%
D10*
%TO.P,J8,1,Pin_1_1*%
%TO.N,/OUT2*%
X124064000Y-71200000D03*
%TD*%
%TO.P,J7,1,Pin_1_1*%
%TO.N,/OUT1*%
X127564000Y-71200000D03*
%TD*%
D16*
%TO.P,J1,1,Pin_1_1*%
%TO.N,/VCC*%
X203300000Y-82000000D03*
%TO.P,J1,2,Pin_2_2*%
%TO.N,/Motor_Encoder_Power*%
X203300000Y-84000000D03*
%TO.P,J1,3,Pin_3_3*%
%TO.N,/OUT1*%
X203300000Y-86000000D03*
%TO.P,J1,4,Pin_4_4*%
%TO.N,/OUT2*%
X203300000Y-88000000D03*
%TO.P,J1,5,Pin_5_5*%
%TO.N,GND*%
X203300000Y-90000000D03*
%TO.P,J1,6,Pin_6_6*%
X203300000Y-92000000D03*
D17*
%TO.P,J1,7*%
%TO.N,N/C*%
X197600000Y-79650000D03*
%TO.P,J1,8*%
X197600000Y-94350000D03*
%TD*%
D10*
%TO.P,J11,1,Pin_1_1*%
%TO.N,/Converted_5V*%
X166300000Y-113100000D03*
%TD*%
D18*
%TO.P,A1,1,TX1_1*%
%TO.N,unconnected-(A1-TX1-Pad1)*%
X176440000Y-77260000D03*
D19*
%TO.P,A1,2,RX1_2*%
%TO.N,unconnected-(A1-RX1-Pad2)*%
X176440000Y-79800000D03*
%TO.P,A1,3,~{RESET}_3*%
%TO.N,unconnected-(A1-~{RESET}-Pad3)*%
X176440000Y-82340000D03*
%TO.P,A1,4,GND_4*%
%TO.N,GND*%
X176440000Y-84880000D03*
%TO.P,A1,5,D2_5*%
%TO.N,/Encoder_A*%
X176440000Y-87420000D03*
%TO.P,A1,6,D3_6*%
%TO.N,unconnected-(A1-D3-Pad6)*%
X176440000Y-89960000D03*
%TO.P,A1,7,D4_7*%
%TO.N,/Encoder_Switch*%
X176440000Y-92500000D03*
%TO.P,A1,8,D5_8*%
%TO.N,/IN1*%
X176440000Y-95040000D03*
%TO.P,A1,9,D6_9*%
%TO.N,/IN2*%
X176440000Y-97580000D03*
%TO.P,A1,10,D7_10*%
%TO.N,/Encoder_B*%
X176440000Y-100120000D03*
%TO.P,A1,11,D8_11*%
%TO.N,unconnected-(A1-D8-Pad11)*%
X176440000Y-102660000D03*
%TO.P,A1,12,D9_12*%
%TO.N,unconnected-(A1-D9-Pad12)*%
X176440000Y-105200000D03*
%TO.P,A1,13,D10_13*%
%TO.N,unconnected-(A1-D10-Pad13)*%
X176440000Y-107740000D03*
%TO.P,A1,14,MOSI_14*%
%TO.N,unconnected-(A1-MOSI-Pad14)*%
X176440000Y-110280000D03*
%TO.P,A1,15,MISO_15*%
%TO.N,unconnected-(A1-MISO-Pad15)*%
X176440000Y-112820000D03*
%TO.P,A1,16,SCK_16*%
%TO.N,unconnected-(A1-SCK-Pad16)*%
X191680000Y-112820000D03*
%TO.P,A1,17,3V3_17*%
%TO.N,/Motor_Encoder_Power*%
X191680000Y-110280000D03*
%TO.P,A1,18,AREF_18*%
%TO.N,unconnected-(A1-AREF-Pad18)*%
X191680000Y-107740000D03*
%TO.P,A1,19,A0_19*%
%TO.N,unconnected-(A1-A0-Pad19)*%
X191680000Y-105200000D03*
%TO.P,A1,20,A1_20*%
%TO.N,unconnected-(A1-A1-Pad20)*%
X191680000Y-102660000D03*
%TO.P,A1,21,A2_21*%
%TO.N,unconnected-(A1-A2-Pad21)*%
X191680000Y-100120000D03*
%TO.P,A1,22,A3_22*%
%TO.N,unconnected-(A1-A3-Pad22)*%
X191680000Y-97580000D03*
%TO.P,A1,23,SDA/A4_23*%
%TO.N,/SDA*%
X191680000Y-95040000D03*
%TO.P,A1,24,SCL/A5_24*%
%TO.N,/SCL*%
X191680000Y-92500000D03*
%TO.P,A1,25,A6_25*%
%TO.N,unconnected-(A1-A6-Pad25)*%
X191680000Y-89960000D03*
%TO.P,A1,26,A7_26*%
%TO.N,unconnected-(A1-A7-Pad26)*%
X191680000Y-87420000D03*
%TO.P,A1,27,+5V_27*%
%TO.N,unconnected-(A1-+5V-Pad27)*%
X191680000Y-84880000D03*
%TO.P,A1,28,~{RESET}_28*%
%TO.N,unconnected-(A1-~{RESET}-Pad28)*%
X191680000Y-82340000D03*
%TO.P,A1,29,GND_29*%
%TO.N,GND*%
X191680000Y-79800000D03*
%TO.P,A1,30,VIN_30*%
%TO.N,/VCC*%
X191680000Y-77260000D03*
%TD*%
D10*
%TO.P,J10,1,Pin_1_1*%
%TO.N,GND*%
X145300000Y-62100000D03*
%TD*%
D20*
%TO.N,/Converted_5V*%
X183500000Y-75200000D03*
X195000000Y-74200000D03*
X179400000Y-87000000D03*
X179400000Y-111100000D03*
%TO.N,/VCC*%
X200700000Y-79000000D03*
X135600000Y-81700000D03*
X131800000Y-85400000D03*
%TO.N,/Encoder_B*%
X171600000Y-78400000D03*
%TO.N,/Motor_Encoder_Power*%
X197700000Y-89500000D03*
%TD*%
%TO.N,Net-(J5-Pin_1)*%
D21*
X125400000Y-99800000D02*
X125600000Y-99600000D01*
X125400000Y-110400000D02*
X125400000Y-99800000D01*
D22*
X125600000Y-110200000D02*
X125400000Y-110400000D01*
%TO.N,GND*%
D21*
X199300000Y-98000000D02*
X203300000Y-94000000D01*
X179300000Y-65700000D02*
X176800000Y-63200000D01*
X126649680Y-110400000D02*
X142600000Y-110400000D01*
X194100000Y-82220000D02*
X194100000Y-94550000D01*
X133680000Y-73520000D02*
X145100000Y-62100000D01*
X191300000Y-65700000D02*
X193200000Y-67600000D01*
X203300000Y-94000000D02*
X203300000Y-92000000D01*
X133680000Y-103369680D02*
X133680000Y-89000000D01*
X197600000Y-73880000D02*
X191680000Y-79800000D01*
X197500000Y-67580000D02*
X197600000Y-67480000D01*
X191680000Y-79800000D02*
X194100000Y-82220000D01*
X170900000Y-59100000D02*
X175000000Y-63200000D01*
X148300000Y-59100000D02*
X170900000Y-59100000D01*
X142600000Y-110400000D02*
X145300000Y-113100000D01*
X186320000Y-84880000D02*
X176440000Y-84880000D01*
X197600000Y-67480000D02*
X197600000Y-73880000D01*
X133680000Y-89000000D02*
X133680000Y-73520000D01*
X126649680Y-110400000D02*
X133680000Y-103369680D01*
X194100000Y-94550000D02*
X197550000Y-98000000D01*
X145300000Y-62100000D02*
X148300000Y-59100000D01*
X197550000Y-98000000D02*
X199300000Y-98000000D01*
X175000000Y-63200000D02*
X176800000Y-63200000D01*
X193200000Y-67600000D02*
X197500000Y-67600000D01*
X191400000Y-79800000D02*
X186320000Y-84880000D01*
X145100000Y-62100000D02*
X145300000Y-62100000D01*
X191680000Y-79800000D02*
X191400000Y-79800000D01*
X191300000Y-65700000D02*
X179300000Y-65700000D01*
X203300000Y-90000000D02*
X203300000Y-92000000D01*
X197500000Y-67600000D02*
X197500000Y-67580000D01*
%TO.N,/Converted_5V*%
X195000000Y-74200000D02*
X184500000Y-74200000D01*
X184500000Y-74200000D02*
X183500000Y-75200000D01*
X179400000Y-87000000D02*
X179400000Y-111100000D01*
%TO.N,/VCC*%
X131140000Y-86060000D02*
X131800000Y-85400000D01*
X181960000Y-77260000D02*
X191680000Y-77260000D01*
X200700000Y-79400000D02*
X203300000Y-82000000D01*
X166800000Y-62100000D02*
X181960000Y-77260000D01*
X126849680Y-93290320D02*
X131140000Y-89000000D01*
X200700000Y-79000000D02*
X200700000Y-79400000D01*
X126849680Y-99600000D02*
X126849680Y-93290320D01*
X135600000Y-81700000D02*
X155200000Y-62100000D01*
X155200000Y-62100000D02*
X166800000Y-62100000D01*
X131140000Y-89000000D02*
X131140000Y-86060000D01*
%TO.N,/Encoder_B*%
X171600000Y-78400000D02*
X171600000Y-95280000D01*
X171600000Y-95280000D02*
X176440000Y-100120000D01*
%TO.N,/OUT2*%
X203300000Y-88000000D02*
X204750000Y-88000000D01*
X120000000Y-113800000D02*
X120000000Y-78100000D01*
X124064000Y-74036000D02*
X124064000Y-71200000D01*
X205650000Y-88900000D02*
X205650000Y-105650000D01*
X204750000Y-88000000D02*
X205650000Y-88900000D01*
X193500000Y-117800000D02*
X124000000Y-117800000D01*
X120000000Y-78100000D02*
X124064000Y-74036000D01*
X205650000Y-105650000D02*
X193500000Y-117800000D01*
X124000000Y-117800000D02*
X120000000Y-113800000D01*
%TO.N,/OUT1*%
X207000000Y-83750000D02*
X204750000Y-86000000D01*
X194890610Y-55100000D02*
X207000000Y-67209390D01*
X204750000Y-86000000D02*
X203300000Y-86000000D01*
X143664000Y-55100000D02*
X194890610Y-55100000D01*
X127564000Y-71200000D02*
X143664000Y-55100000D01*
X207000000Y-67209390D02*
X207000000Y-83750000D01*
%TO.N,/Motor_Encoder_Power*%
X197700000Y-87050000D02*
X197700000Y-89500000D01*
X200750000Y-84000000D02*
X197700000Y-87050000D01*
X203300000Y-84000000D02*
X200750000Y-84000000D01*
%TD*%
M02*
