%TF.GenerationSoftware,KiCad,Pcbnew,10.0.0*%
%TF.CreationDate,2026-07-06T21:21:33+09:00*%
%TF.ProjectId,screw_sorter,73637265-775f-4736-9f72-7465722e6b69,rev?*%
%TF.SameCoordinates,Original*%
%TF.FileFunction,Copper,L2,Bot*%
%TF.FilePolarity,Positive*%
%FSLAX46Y46*%
G04 Gerber Fmt 4.6, Leading zero omitted, Abs format (unit mm)*
G04 Created by KiCad (PCBNEW 10.0.0) date 2026-07-06 21:21:33*
%MOMM*%
%LPD*%
G01*
G04 APERTURE LIST*
%TA.AperFunction,ComponentPad*%
%ADD10R,1.700000X1.700000*%
%TD*%
%TA.AperFunction,ComponentPad*%
%ADD11C,1.700000*%
%TD*%
%TA.AperFunction,ComponentPad*%
%ADD12O,1.000000X1.000000*%
%TD*%
%TA.AperFunction,ComponentPad*%
%ADD13R,2.000000X2.000000*%
%TD*%
%TA.AperFunction,ComponentPad*%
%ADD14C,2.000000*%
%TD*%
%TA.AperFunction,ComponentPad*%
%ADD15C,3.200000*%
%TD*%
%TA.AperFunction,ComponentPad*%
%ADD16R,1.600000X1.600000*%
%TD*%
%TA.AperFunction,ComponentPad*%
%ADD17O,1.600000X1.600000*%
%TD*%
%TA.AperFunction,ViaPad*%
%ADD18C,0.600000*%
%TD*%
%TA.AperFunction,Conductor*%
%ADD19C,0.800000*%
%TD*%
G04 APERTURE END LIST*
D10*
%TO.P,J2,1,Pin_1_1*%
%TO.N,GND*%
X197600000Y-67480000D03*
D11*
%TO.P,J2,2,Pin_2_2*%
%TO.N,/Converted_5V*%
X197600000Y-64940000D03*
%TO.P,J2,3,Pin_3_3*%
%TO.N,/SDA*%
X197600000Y-62400000D03*
%TO.P,J2,4,Pin_4_4*%
%TO.N,/SCL*%
X197600000Y-59860000D03*
%TD*%
D12*
%TO.P,J5,1,Pin_1_1*%
%TO.N,Net-(J5-Pin_1)*%
X125400000Y-110400000D03*
%TO.P,J5,2,Pin_2_2*%
%TO.N,GND*%
X126649680Y-110400000D03*
%TD*%
%TO.P,J6,1,Pin_1_1*%
%TO.N,/VCC*%
X126849680Y-99600000D03*
%TO.P,J6,2,Pin_2_2*%
%TO.N,Net-(J5-Pin_1)*%
X125600000Y-99600000D03*
%TD*%
D10*
%TO.P,J9,1,Pin_1_1*%
%TO.N,/VCC*%
X166800000Y-62100000D03*
%TD*%
D13*
%TO.P,SW2,A,A_A*%
%TO.N,/Encoder_A*%
X176800000Y-60700000D03*
D14*
%TO.P,SW2,B,B_B*%
%TO.N,/Encoder_B*%
X176800000Y-65700000D03*
%TO.P,SW2,C,C_C*%
%TO.N,GND*%
X176800000Y-63200000D03*
D15*
%TO.P,SW2,MP,MP_MP*%
%TO.N,unconnected-(SW2-PadMP)*%
X184300000Y-57600000D03*
X184300000Y-68800000D03*
D14*
%TO.P,SW2,S1,S1_S1*%
%TO.N,GND*%
X191300000Y-65700000D03*
%TO.P,SW2,S2,S2_S2*%
%TO.N,/Encoder_Switch*%
X191300000Y-60700000D03*
%TD*%
D10*
%TO.P,J12,1,Pin_1_1*%
%TO.N,GND*%
X145300000Y-113100000D03*
%TD*%
%TO.P,J3,1,Pin_1_1*%
%TO.N,/IN2*%
X126060000Y-89000000D03*
D11*
%TO.P,J3,2,Pin_2_2*%
%TO.N,/IN1*%
X128600000Y-89000000D03*
%TO.P,J3,3,Pin_3_3*%
%TO.N,/VCC*%
X131140000Y-89000000D03*
%TO.P,J3,4,Pin_4_4*%
%TO.N,GND*%
X133680000Y-89000000D03*
%TD*%
D10*
%TO.P,J8,1,Pin_1_1*%
%TO.N,/OUT2*%
X124064000Y-71200000D03*
%TD*%
%TO.P,J7,1,Pin_1_1*%
%TO.N,/OUT1*%
X127564000Y-71200000D03*
%TD*%
%TO.P,J11,1,Pin_1_1*%
%TO.N,/Converted_5V*%
X166300000Y-113100000D03*
%TD*%
D16*
%TO.P,A1,1,TX1_1*%
%TO.N,unconnected-(A1-TX1-Pad1)*%
X176440000Y-77260000D03*
D17*
%TO.P,A1,2,RX1_2*%
%TO.N,unconnected-(A1-RX1-Pad2)*%
X176440000Y-79800000D03*
%TO.P,A1,3,~{RESET}_3*%
%TO.N,unconnected-(A1-~{RESET}-Pad3)*%
X176440000Y-82340000D03*
%TO.P,A1,4,GND_4*%
%TO.N,GND*%
X176440000Y-84880000D03*
%TO.P,A1,5,D2_5*%
%TO.N,/Encoder_A*%
X176440000Y-87420000D03*
%TO.P,A1,6,D3_6*%
%TO.N,unconnected-(A1-D3-Pad6)*%
X176440000Y-89960000D03*
%TO.P,A1,7,D4_7*%
%TO.N,/Encoder_Switch*%
X176440000Y-92500000D03*
%TO.P,A1,8,D5_8*%
%TO.N,/IN1*%
X176440000Y-95040000D03*
%TO.P,A1,9,D6_9*%
%TO.N,/IN2*%
X176440000Y-97580000D03*
%TO.P,A1,10,D7_10*%
%TO.N,/Encoder_B*%
X176440000Y-100120000D03*
%TO.P,A1,11,D8_11*%
%TO.N,unconnected-(A1-D8-Pad11)*%
X176440000Y-102660000D03*
%TO.P,A1,12,D9_12*%
%TO.N,unconnected-(A1-D9-Pad12)*%
X176440000Y-105200000D03*
%TO.P,A1,13,D10_13*%
%TO.N,unconnected-(A1-D10-Pad13)*%
X176440000Y-107740000D03*
%TO.P,A1,14,MOSI_14*%
%TO.N,unconnected-(A1-MOSI-Pad14)*%
X176440000Y-110280000D03*
%TO.P,A1,15,MISO_15*%
%TO.N,unconnected-(A1-MISO-Pad15)*%
X176440000Y-112820000D03*
%TO.P,A1,16,SCK_16*%
%TO.N,unconnected-(A1-SCK-Pad16)*%
X191680000Y-112820000D03*
%TO.P,A1,17,3V3_17*%
%TO.N,/Motor_Encoder_Power*%
X191680000Y-110280000D03*
%TO.P,A1,18,AREF_18*%
%TO.N,unconnected-(A1-AREF-Pad18)*%
X191680000Y-107740000D03*
%TO.P,A1,19,A0_19*%
%TO.N,unconnected-(A1-A0-Pad19)*%
X191680000Y-105200000D03*
%TO.P,A1,20,A1_20*%
%TO.N,unconnected-(A1-A1-Pad20)*%
X191680000Y-102660000D03*
%TO.P,A1,21,A2_21*%
%TO.N,unconnected-(A1-A2-Pad21)*%
X191680000Y-100120000D03*
%TO.P,A1,22,A3_22*%
%TO.N,unconnected-(A1-A3-Pad22)*%
X191680000Y-97580000D03*
%TO.P,A1,23,SDA/A4_23*%
%TO.N,/SDA*%
X191680000Y-95040000D03*
%TO.P,A1,24,SCL/A5_24*%
%TO.N,/SCL*%
X191680000Y-92500000D03*
%TO.P,A1,25,A6_25*%
%TO.N,unconnected-(A1-A6-Pad25)*%
X191680000Y-89960000D03*
%TO.P,A1,26,A7_26*%
%TO.N,unconnected-(A1-A7-Pad26)*%
X191680000Y-87420000D03*
%TO.P,A1,27,+5V_27*%
%TO.N,unconnected-(A1-+5V-Pad27)*%
X191680000Y-84880000D03*
%TO.P,A1,28,~{RESET}_28*%
%TO.N,unconnected-(A1-~{RESET}-Pad28)*%
X191680000Y-82340000D03*
%TO.P,A1,29,GND_29*%
%TO.N,GND*%
X191680000Y-79800000D03*
%TO.P,A1,30,VIN_30*%
%TO.N,/VCC*%
X191680000Y-77260000D03*
%TD*%
D10*
%TO.P,J10,1,Pin_1_1*%
%TO.N,GND*%
X145300000Y-62100000D03*
%TD*%
D18*
%TO.N,/Converted_5V*%
X183500000Y-75200000D03*
X195000000Y-74200000D03*
X179400000Y-87000000D03*
X179400000Y-111100000D03*
%TO.N,/VCC*%
X200700000Y-79000000D03*
X135600000Y-81700000D03*
X131800000Y-85400000D03*
%TO.N,/Encoder_B*%
X171600000Y-78400000D03*
%TO.N,/Motor_Encoder_Power*%
X197700000Y-89500000D03*
%TD*%
%TO.N,/Converted_5V*%
D19*
X200300000Y-67280000D02*
X200300000Y-68900000D01*
X179400000Y-114200000D02*
X175500000Y-118100000D01*
X175500000Y-118100000D02*
X171000000Y-118100000D01*
X166300000Y-113400000D02*
X166300000Y-113100000D01*
X183500000Y-82900000D02*
X179400000Y-87000000D01*
X171000000Y-118100000D02*
X166300000Y-113400000D01*
X197960000Y-64940000D02*
X200300000Y-67280000D01*
X179400000Y-111100000D02*
X179400000Y-114200000D01*
X197600000Y-64940000D02*
X197960000Y-64940000D01*
X200300000Y-68900000D02*
X195000000Y-74200000D01*
X183500000Y-75200000D02*
X183500000Y-82900000D01*
%TO.N,/SDA*%
X197600000Y-62400000D02*
X202500000Y-67300000D01*
X193080000Y-89920000D02*
X193080000Y-93640000D01*
X193080000Y-93640000D02*
X191680000Y-95040000D01*
X202500000Y-80500000D02*
X193080000Y-89920000D01*
X202500000Y-67300000D02*
X202500000Y-80500000D01*
%TO.N,/SCL*%
X190280000Y-81820000D02*
X190280000Y-76680101D01*
X196150000Y-70810101D02*
X190280000Y-76680101D01*
X186600000Y-91100000D02*
X184900000Y-89400000D01*
X190280000Y-91100000D02*
X191680000Y-92500000D01*
X197600000Y-59860000D02*
X196150000Y-61310000D01*
X196150000Y-61310000D02*
X196150000Y-70810101D01*
X184900000Y-87200000D02*
X190280000Y-81820000D01*
X190280000Y-91100000D02*
X186600000Y-91100000D01*
X184900000Y-89400000D02*
X184900000Y-87200000D01*
%TO.N,/VCC*%
X198960000Y-77260000D02*
X200700000Y-79000000D01*
X191680000Y-77260000D02*
X198960000Y-77260000D01*
X131800000Y-85400000D02*
X131900000Y-85400000D01*
X131900000Y-85400000D02*
X135600000Y-81700000D01*
%TO.N,/Encoder_A*%
X176800000Y-60700000D02*
X168900000Y-68600000D01*
X168900000Y-68600000D02*
X168900000Y-79880000D01*
X168900000Y-79880000D02*
X176440000Y-87420000D01*
%TO.N,/Encoder_B*%
X176800000Y-65700000D02*
X171600000Y-70900000D01*
X171600000Y-70900000D02*
X171600000Y-78400000D01*
%TO.N,unconnected-(SW2-PadMP)*%
X184300000Y-57600000D02*
X184300000Y-68800000D01*
%TO.N,/Encoder_Switch*%
X191300000Y-60700000D02*
X187800000Y-64200000D01*
X187800000Y-64200000D02*
X187800000Y-81140000D01*
X187800000Y-81140000D02*
X176440000Y-92500000D01*
%TO.N,/IN2*%
X126060000Y-90650000D02*
X126060000Y-89000000D01*
X132990000Y-97580000D02*
X126060000Y-90650000D01*
X176440000Y-97580000D02*
X132990000Y-97580000D01*
%TO.N,/IN1*%
X176440000Y-95040000D02*
X134640000Y-95040000D01*
X134640000Y-95040000D02*
X128600000Y-89000000D01*
%TO.N,/Motor_Encoder_Power*%
X198500001Y-93499999D02*
X198500001Y-90300001D01*
X198500001Y-93499999D02*
X195900000Y-96100000D01*
X198500001Y-90300001D02*
X197700000Y-89500000D01*
X195900000Y-96100000D02*
X195900000Y-106060000D01*
X191680000Y-110280000D02*
X195900000Y-106060000D01*
%TD*%
M02*
